{
	"patcher" : 	{
		"fileversion" : 1,
		"appversion" : 		{
			"major" : 6,
			"minor" : 1,
			"revision" : 10,
			"architecture" : "x86"
		}
,
		"rect" : [ 458.0, 215.0, 1194.0, 557.0 ],
		"bglocked" : 0,
		"openinpresentation" : 0,
		"default_fontsize" : 12.0,
		"default_fontface" : 0,
		"default_fontname" : "Arial",
		"gridonopen" : 0,
		"gridsize" : [ 15.0, 15.0 ],
		"gridsnaponopen" : 0,
		"statusbarvisible" : 2,
		"toolbarvisible" : 1,
		"boxanimatetime" : 200,
		"imprint" : 0,
		"enablehscroll" : 1,
		"enablevscroll" : 1,
		"devicewidth" : 0.0,
		"description" : "",
		"digest" : "",
		"tags" : "",
		"boxes" : [ 			{
				"box" : 				{
					"fontname" : "Arial",
					"fontsize" : 12.0,
					"id" : "obj-19",
					"maxclass" : "newobj",
					"numinlets" : 1,
					"numoutlets" : 2,
					"outlettype" : [ "signal", "" ],
					"patching_rect" : [ 171.0, 250.0, 87.0, 20.0 ],
					"saved_object_attributes" : 					{
						"parameter_enable" : 0
					}
,
					"text" : "spat.decoder~"
				}

			}
, 			{
				"box" : 				{
					"fontname" : "Arial",
					"fontsize" : 12.0,
					"id" : "obj-15",
					"maxclass" : "newobj",
					"numinlets" : 2,
					"numoutlets" : 0,
					"patching_rect" : [ 468.0, 442.0, 243.052765, 20.0 ],
					"presentation_rect" : [ 218.0, 422.0, 0.0, 0.0 ],
					"text" : "dac~ 1 2"
				}

			}
, 			{
				"box" : 				{
					"fontname" : "Arial",
					"fontsize" : 12.0,
					"id" : "obj-11",
					"maxclass" : "newobj",
					"numinlets" : 1,
					"numoutlets" : 20,
					"outlettype" : [ "signal", "signal", "signal", "signal", "signal", "signal", "signal", "signal", "signal", "signal", "signal", "signal", "signal", "signal", "signal", "signal", "signal", "signal", "signal", "signal" ],
					"patching_rect" : [ 482.455017, 131.0, 624.440369, 20.0 ],
					"text" : "adc~ 1 2 3 4 5 6 7 8 9 10 11 12 13 14 15 16 17 18 19 20"
				}

			}
, 			{
				"box" : 				{
					"fontname" : "Arial",
					"fontsize" : 12.0,
					"id" : "obj-12",
					"maxclass" : "newobj",
					"numinlets" : 16,
					"numoutlets" : 17,
					"outlettype" : [ "signal", "signal", "signal", "signal", "signal", "signal", "signal", "signal", "signal", "signal", "signal", "signal", "signal", "signal", "signal", "signal", "" ],
					"patching_rect" : [ 482.455017, 214.0, 496.979218, 20.0 ],
					"saved_object_attributes" : 					{
						"parameter_enable" : 0
					}
,
					"text" : "spat.meter~ @numchannels 16 @numleds 60 @width 20"
				}

			}
, 			{
				"box" : 				{
					"fontname" : "Arial",
					"fontsize" : 12.0,
					"id" : "obj-25",
					"maxclass" : "newobj",
					"numinlets" : 32,
					"numoutlets" : 2,
					"outlettype" : [ "signal", "signal" ],
					"patching_rect" : [ 468.0, 336.0, 467.10553, 20.0 ],
					"text" : "spat.virtualloudspeakers 31"
				}

			}
, 			{
				"box" : 				{
					"fontname" : "Arial",
					"fontsize" : 12.0,
					"id" : "obj-26",
					"maxclass" : "newobj",
					"numinlets" : 2,
					"numoutlets" : 3,
					"outlettype" : [ "signal", "signal", "" ],
					"patching_rect" : [ 468.0, 382.0, 467.10553, 20.0 ],
					"saved_object_attributes" : 					{
						"parameter_enable" : 0
					}
,
					"text" : "spat.meter~ @numchannels 2 @numleds 60 @width 20"
				}

			}
, 			{
				"box" : 				{
					"fontname" : "Arial",
					"fontsize" : 11.0,
					"id" : "obj-7",
					"linecount" : 4,
					"maxclass" : "message",
					"numinlets" : 2,
					"numoutlets" : 1,
					"outlettype" : [ "" ],
					"patching_rect" : [ 199.0, 45.0, 580.0, 54.0 ],
					"presentation_rect" : [ 47.0, 21.0, 0.0, 0.0 ],
					"text" : "speakers ae 0 90 352.5 50.625 292.5 50.625 232.5 50.625 172.5 50.625 112.5 50.625 52.5 50.625 7.5 28.125 337.5 28.125 307.5 28.125 277.5 28.125 247.5 28.125 217.5 28.125 187.5 28.125 157.5 28.125 127.5 28.125 97.5 28.125 67.5 28.125 37.5 28.125 7.5 5.625 337.5 5.625 307.5 5.625 277.5 5.625 247.5 5.625 217.5 5.625 187.5 5.625 157.5 5.625 127.5 5.625 97.5 5.625 67.5 5.625 37.5 5.625"
				}

			}
, 			{
				"box" : 				{
					"fontname" : "Arial",
					"fontsize" : 12.0,
					"id" : "obj-2",
					"maxclass" : "newobj",
					"numinlets" : 1,
					"numoutlets" : 3,
					"outlettype" : [ "", "", "" ],
					"patching_rect" : [ 199.0, 131.0, 256.0, 20.0 ],
					"saved_object_attributes" : 					{
						"parameter_enable" : 0
					}
,
					"text" : "spat.oper @numsources 8 @numspeakers 31"
				}

			}
, 			{
				"box" : 				{
					"fontname" : "Arial",
					"fontsize" : 12.0,
					"id" : "obj-1",
					"maxclass" : "newobj",
					"numinlets" : 16,
					"numoutlets" : 32,
					"outlettype" : [ "signal", "signal", "signal", "signal", "signal", "signal", "signal", "signal", "signal", "signal", "signal", "signal", "signal", "signal", "signal", "signal", "signal", "signal", "signal", "signal", "signal", "signal", "signal", "signal", "signal", "signal", "signal", "signal", "signal", "signal", "signal", "" ],
					"patching_rect" : [ 482.455017, 270.0, 467.10553, 20.0 ],
					"saved_object_attributes" : 					{
						"parameter_enable" : 0
					}
,
					"text" : "spat.spat~ @numsources 8 @numspeakers 31 @panning vbap3d @stereo 1"
				}

			}
 ],
		"lines" : [ 			{
				"patchline" : 				{
					"destination" : [ "obj-25", 31 ],
					"disabled" : 0,
					"hidden" : 0,
					"source" : [ "obj-1", 30 ]
				}

			}
, 			{
				"patchline" : 				{
					"destination" : [ "obj-25", 30 ],
					"disabled" : 0,
					"hidden" : 0,
					"source" : [ "obj-1", 29 ]
				}

			}
, 			{
				"patchline" : 				{
					"destination" : [ "obj-25", 29 ],
					"disabled" : 0,
					"hidden" : 0,
					"source" : [ "obj-1", 28 ]
				}

			}
, 			{
				"patchline" : 				{
					"destination" : [ "obj-25", 28 ],
					"disabled" : 0,
					"hidden" : 0,
					"source" : [ "obj-1", 27 ]
				}

			}
, 			{
				"patchline" : 				{
					"destination" : [ "obj-25", 27 ],
					"disabled" : 0,
					"hidden" : 0,
					"source" : [ "obj-1", 26 ]
				}

			}
, 			{
				"patchline" : 				{
					"destination" : [ "obj-25", 26 ],
					"disabled" : 0,
					"hidden" : 0,
					"source" : [ "obj-1", 25 ]
				}

			}
, 			{
				"patchline" : 				{
					"destination" : [ "obj-25", 25 ],
					"disabled" : 0,
					"hidden" : 0,
					"source" : [ "obj-1", 24 ]
				}

			}
, 			{
				"patchline" : 				{
					"destination" : [ "obj-25", 24 ],
					"disabled" : 0,
					"hidden" : 0,
					"source" : [ "obj-1", 23 ]
				}

			}
, 			{
				"patchline" : 				{
					"destination" : [ "obj-25", 23 ],
					"disabled" : 0,
					"hidden" : 0,
					"source" : [ "obj-1", 22 ]
				}

			}
, 			{
				"patchline" : 				{
					"destination" : [ "obj-25", 22 ],
					"disabled" : 0,
					"hidden" : 0,
					"source" : [ "obj-1", 21 ]
				}

			}
, 			{
				"patchline" : 				{
					"destination" : [ "obj-25", 21 ],
					"disabled" : 0,
					"hidden" : 0,
					"source" : [ "obj-1", 20 ]
				}

			}
, 			{
				"patchline" : 				{
					"destination" : [ "obj-25", 20 ],
					"disabled" : 0,
					"hidden" : 0,
					"source" : [ "obj-1", 19 ]
				}

			}
, 			{
				"patchline" : 				{
					"destination" : [ "obj-25", 19 ],
					"disabled" : 0,
					"hidden" : 0,
					"source" : [ "obj-1", 18 ]
				}

			}
, 			{
				"patchline" : 				{
					"destination" : [ "obj-25", 18 ],
					"disabled" : 0,
					"hidden" : 0,
					"source" : [ "obj-1", 17 ]
				}

			}
, 			{
				"patchline" : 				{
					"destination" : [ "obj-25", 17 ],
					"disabled" : 0,
					"hidden" : 0,
					"source" : [ "obj-1", 16 ]
				}

			}
, 			{
				"patchline" : 				{
					"destination" : [ "obj-25", 16 ],
					"disabled" : 0,
					"hidden" : 0,
					"source" : [ "obj-1", 15 ]
				}

			}
, 			{
				"patchline" : 				{
					"destination" : [ "obj-25", 15 ],
					"disabled" : 0,
					"hidden" : 0,
					"source" : [ "obj-1", 14 ]
				}

			}
, 			{
				"patchline" : 				{
					"destination" : [ "obj-25", 14 ],
					"disabled" : 0,
					"hidden" : 0,
					"source" : [ "obj-1", 13 ]
				}

			}
, 			{
				"patchline" : 				{
					"destination" : [ "obj-25", 13 ],
					"disabled" : 0,
					"hidden" : 0,
					"source" : [ "obj-1", 12 ]
				}

			}
, 			{
				"patchline" : 				{
					"destination" : [ "obj-25", 12 ],
					"disabled" : 0,
					"hidden" : 0,
					"source" : [ "obj-1", 11 ]
				}

			}
, 			{
				"patchline" : 				{
					"destination" : [ "obj-25", 11 ],
					"disabled" : 0,
					"hidden" : 0,
					"source" : [ "obj-1", 10 ]
				}

			}
, 			{
				"patchline" : 				{
					"destination" : [ "obj-25", 10 ],
					"disabled" : 0,
					"hidden" : 0,
					"source" : [ "obj-1", 9 ]
				}

			}
, 			{
				"patchline" : 				{
					"destination" : [ "obj-25", 9 ],
					"disabled" : 0,
					"hidden" : 0,
					"source" : [ "obj-1", 8 ]
				}

			}
, 			{
				"patchline" : 				{
					"destination" : [ "obj-25", 8 ],
					"disabled" : 0,
					"hidden" : 0,
					"source" : [ "obj-1", 7 ]
				}

			}
, 			{
				"patchline" : 				{
					"destination" : [ "obj-25", 7 ],
					"disabled" : 0,
					"hidden" : 0,
					"source" : [ "obj-1", 6 ]
				}

			}
, 			{
				"patchline" : 				{
					"destination" : [ "obj-25", 6 ],
					"disabled" : 0,
					"hidden" : 0,
					"source" : [ "obj-1", 5 ]
				}

			}
, 			{
				"patchline" : 				{
					"destination" : [ "obj-25", 5 ],
					"disabled" : 0,
					"hidden" : 0,
					"source" : [ "obj-1", 4 ]
				}

			}
, 			{
				"patchline" : 				{
					"destination" : [ "obj-25", 4 ],
					"disabled" : 0,
					"hidden" : 0,
					"source" : [ "obj-1", 3 ]
				}

			}
, 			{
				"patchline" : 				{
					"destination" : [ "obj-25", 3 ],
					"disabled" : 0,
					"hidden" : 0,
					"source" : [ "obj-1", 2 ]
				}

			}
, 			{
				"patchline" : 				{
					"destination" : [ "obj-25", 2 ],
					"disabled" : 0,
					"hidden" : 0,
					"source" : [ "obj-1", 1 ]
				}

			}
, 			{
				"patchline" : 				{
					"destination" : [ "obj-25", 1 ],
					"disabled" : 0,
					"hidden" : 0,
					"source" : [ "obj-1", 0 ]
				}

			}
, 			{
				"patchline" : 				{
					"destination" : [ "obj-12", 15 ],
					"disabled" : 0,
					"hidden" : 0,
					"source" : [ "obj-11", 15 ]
				}

			}
, 			{
				"patchline" : 				{
					"destination" : [ "obj-12", 14 ],
					"disabled" : 0,
					"hidden" : 0,
					"source" : [ "obj-11", 14 ]
				}

			}
, 			{
				"patchline" : 				{
					"destination" : [ "obj-12", 13 ],
					"disabled" : 0,
					"hidden" : 0,
					"source" : [ "obj-11", 13 ]
				}

			}
, 			{
				"patchline" : 				{
					"destination" : [ "obj-12", 12 ],
					"disabled" : 0,
					"hidden" : 0,
					"source" : [ "obj-11", 12 ]
				}

			}
, 			{
				"patchline" : 				{
					"destination" : [ "obj-12", 11 ],
					"disabled" : 0,
					"hidden" : 0,
					"source" : [ "obj-11", 11 ]
				}

			}
, 			{
				"patchline" : 				{
					"destination" : [ "obj-12", 10 ],
					"disabled" : 0,
					"hidden" : 0,
					"source" : [ "obj-11", 10 ]
				}

			}
, 			{
				"patchline" : 				{
					"destination" : [ "obj-12", 9 ],
					"disabled" : 0,
					"hidden" : 0,
					"source" : [ "obj-11", 9 ]
				}

			}
, 			{
				"patchline" : 				{
					"destination" : [ "obj-12", 8 ],
					"disabled" : 0,
					"hidden" : 0,
					"source" : [ "obj-11", 8 ]
				}

			}
, 			{
				"patchline" : 				{
					"destination" : [ "obj-12", 7 ],
					"disabled" : 0,
					"hidden" : 0,
					"source" : [ "obj-11", 7 ]
				}

			}
, 			{
				"patchline" : 				{
					"destination" : [ "obj-12", 6 ],
					"disabled" : 0,
					"hidden" : 0,
					"source" : [ "obj-11", 6 ]
				}

			}
, 			{
				"patchline" : 				{
					"destination" : [ "obj-12", 5 ],
					"disabled" : 0,
					"hidden" : 0,
					"source" : [ "obj-11", 5 ]
				}

			}
, 			{
				"patchline" : 				{
					"destination" : [ "obj-12", 4 ],
					"disabled" : 0,
					"hidden" : 0,
					"source" : [ "obj-11", 4 ]
				}

			}
, 			{
				"patchline" : 				{
					"destination" : [ "obj-12", 3 ],
					"disabled" : 0,
					"hidden" : 0,
					"source" : [ "obj-11", 3 ]
				}

			}
, 			{
				"patchline" : 				{
					"destination" : [ "obj-12", 2 ],
					"disabled" : 0,
					"hidden" : 0,
					"source" : [ "obj-11", 2 ]
				}

			}
, 			{
				"patchline" : 				{
					"destination" : [ "obj-12", 1 ],
					"disabled" : 0,
					"hidden" : 0,
					"source" : [ "obj-11", 1 ]
				}

			}
, 			{
				"patchline" : 				{
					"destination" : [ "obj-12", 0 ],
					"disabled" : 0,
					"hidden" : 0,
					"source" : [ "obj-11", 0 ]
				}

			}
, 			{
				"patchline" : 				{
					"destination" : [ "obj-1", 15 ],
					"disabled" : 0,
					"hidden" : 0,
					"source" : [ "obj-12", 15 ]
				}

			}
, 			{
				"patchline" : 				{
					"destination" : [ "obj-1", 14 ],
					"disabled" : 0,
					"hidden" : 0,
					"source" : [ "obj-12", 14 ]
				}

			}
, 			{
				"patchline" : 				{
					"destination" : [ "obj-1", 13 ],
					"disabled" : 0,
					"hidden" : 0,
					"source" : [ "obj-12", 13 ]
				}

			}
, 			{
				"patchline" : 				{
					"destination" : [ "obj-1", 12 ],
					"disabled" : 0,
					"hidden" : 0,
					"source" : [ "obj-12", 12 ]
				}

			}
, 			{
				"patchline" : 				{
					"destination" : [ "obj-1", 11 ],
					"disabled" : 0,
					"hidden" : 0,
					"source" : [ "obj-12", 11 ]
				}

			}
, 			{
				"patchline" : 				{
					"destination" : [ "obj-1", 10 ],
					"disabled" : 0,
					"hidden" : 0,
					"source" : [ "obj-12", 10 ]
				}

			}
, 			{
				"patchline" : 				{
					"destination" : [ "obj-1", 9 ],
					"disabled" : 0,
					"hidden" : 0,
					"source" : [ "obj-12", 9 ]
				}

			}
, 			{
				"patchline" : 				{
					"destination" : [ "obj-1", 8 ],
					"disabled" : 0,
					"hidden" : 0,
					"source" : [ "obj-12", 8 ]
				}

			}
, 			{
				"patchline" : 				{
					"destination" : [ "obj-1", 7 ],
					"disabled" : 0,
					"hidden" : 0,
					"source" : [ "obj-12", 7 ]
				}

			}
, 			{
				"patchline" : 				{
					"destination" : [ "obj-1", 6 ],
					"disabled" : 0,
					"hidden" : 0,
					"source" : [ "obj-12", 6 ]
				}

			}
, 			{
				"patchline" : 				{
					"destination" : [ "obj-1", 5 ],
					"disabled" : 0,
					"hidden" : 0,
					"source" : [ "obj-12", 5 ]
				}

			}
, 			{
				"patchline" : 				{
					"destination" : [ "obj-1", 4 ],
					"disabled" : 0,
					"hidden" : 0,
					"source" : [ "obj-12", 4 ]
				}

			}
, 			{
				"patchline" : 				{
					"destination" : [ "obj-1", 3 ],
					"disabled" : 0,
					"hidden" : 0,
					"source" : [ "obj-12", 3 ]
				}

			}
, 			{
				"patchline" : 				{
					"destination" : [ "obj-1", 2 ],
					"disabled" : 0,
					"hidden" : 0,
					"source" : [ "obj-12", 2 ]
				}

			}
, 			{
				"patchline" : 				{
					"destination" : [ "obj-1", 1 ],
					"disabled" : 0,
					"hidden" : 0,
					"source" : [ "obj-12", 1 ]
				}

			}
, 			{
				"patchline" : 				{
					"destination" : [ "obj-1", 0 ],
					"disabled" : 0,
					"hidden" : 0,
					"source" : [ "obj-12", 0 ]
				}

			}
, 			{
				"patchline" : 				{
					"destination" : [ "obj-1", 0 ],
					"disabled" : 0,
					"hidden" : 0,
					"source" : [ "obj-2", 0 ]
				}

			}
, 			{
				"patchline" : 				{
					"destination" : [ "obj-26", 1 ],
					"disabled" : 0,
					"hidden" : 0,
					"source" : [ "obj-25", 1 ]
				}

			}
, 			{
				"patchline" : 				{
					"destination" : [ "obj-26", 0 ],
					"disabled" : 0,
					"hidden" : 0,
					"source" : [ "obj-25", 0 ]
				}

			}
, 			{
				"patchline" : 				{
					"destination" : [ "obj-15", 1 ],
					"disabled" : 0,
					"hidden" : 0,
					"source" : [ "obj-26", 1 ]
				}

			}
, 			{
				"patchline" : 				{
					"destination" : [ "obj-15", 0 ],
					"disabled" : 0,
					"hidden" : 0,
					"source" : [ "obj-26", 0 ]
				}

			}
, 			{
				"patchline" : 				{
					"destination" : [ "obj-2", 0 ],
					"disabled" : 0,
					"hidden" : 0,
					"source" : [ "obj-7", 0 ]
				}

			}
 ],
		"dependency_cache" : [ 			{
				"name" : "spat.virtualloudspeakers.maxpat",
				"bootpath" : "/Applications/Max 6.1/packages/ircam-spat/patchers",
				"patcherrelativepath" : "../../../../../Applications/Max 6.1/packages/ircam-spat/patchers",
				"type" : "TEXT",
				"implicit" : 1
			}
, 			{
				"name" : "spat.spat~.mxo",
				"type" : "iLaX"
			}
, 			{
				"name" : "spat.oper.mxo",
				"type" : "iLaX"
			}
, 			{
				"name" : "spat.meter~.mxo",
				"type" : "iLaX"
			}
, 			{
				"name" : "spat.pan~.mxo",
				"type" : "iLaX"
			}
, 			{
				"name" : "spat.converter.mxo",
				"type" : "iLaX"
			}
, 			{
				"name" : "spat.decoder~.mxo",
				"type" : "iLaX"
			}
 ]
	}

}
