{
	"patcher" : 	{
		"fileversion" : 1,
		"appversion" : 		{
			"major" : 6,
			"minor" : 1,
			"revision" : 10,
			"architecture" : "x86"
		}
,
		"rect" : [ 451.0, 90.0, 962.0, 546.0 ],
		"bglocked" : 0,
		"openinpresentation" : 0,
		"default_fontsize" : 12.0,
		"default_fontface" : 0,
		"default_fontname" : "Arial",
		"gridonopen" : 0,
		"gridsize" : [ 15.0, 15.0 ],
		"gridsnaponopen" : 0,
		"statusbarvisible" : 2,
		"toolbarvisible" : 1,
		"boxanimatetime" : 200,
		"imprint" : 0,
		"enablehscroll" : 1,
		"enablevscroll" : 1,
		"devicewidth" : 0.0,
		"description" : "",
		"digest" : "",
		"tags" : "",
		"boxes" : [ 			{
				"box" : 				{
					"args" : [ 2 ],
					"id" : "obj-10",
					"maxclass" : "bpatcher",
					"name" : "spat.multioutputs~.maxpat",
					"numinlets" : 3,
					"numoutlets" : 3,
					"outlettype" : [ "float", "signal", "signal" ],
					"patching_rect" : [ 259.0, 355.0, 166.0, 98.0 ]
				}

			}
, 			{
				"box" : 				{
					"fontname" : "Arial",
					"fontsize" : 11.0,
					"id" : "obj-20",
					"maxclass" : "message",
					"numinlets" : 2,
					"numoutlets" : 1,
					"outlettype" : [ "" ],
					"patching_rect" : [ 162.0, 425.0, 33.0, 17.0 ],
					"text" : "stop"
				}

			}
, 			{
				"box" : 				{
					"fontname" : "Arial",
					"fontsize" : 11.0,
					"id" : "obj-18",
					"maxclass" : "message",
					"numinlets" : 2,
					"numoutlets" : 1,
					"outlettype" : [ "" ],
					"patching_rect" : [ 84.0, 425.0, 69.0, 17.0 ],
					"text" : "startwindow"
				}

			}
, 			{
				"box" : 				{
					"id" : "obj-9",
					"maxclass" : "bpatcher",
					"name" : "spat.input~.maxpat",
					"numinlets" : 4,
					"numoutlets" : 1,
					"outlettype" : [ "signal" ],
					"patching_rect" : [ 34.0, 29.0, 217.0, 125.0 ]
				}

			}
, 			{
				"box" : 				{
					"fontname" : "Arial",
					"fontsize" : 11.0,
					"id" : "obj-7",
					"maxclass" : "newobj",
					"numinlets" : 1,
					"numoutlets" : 5,
					"outlettype" : [ "signal", "signal", "signal", "signal", "" ],
					"patching_rect" : [ 259.0, 304.0, 389.0, 19.0 ],
					"saved_object_attributes" : 					{
						"parameter_enable" : 0
					}
,
					"text" : "spat.pan~ @numsources 1 @numspeakers 2 @type vbap2d @subtype direct"
				}

			}
, 			{
				"box" : 				{
					"fontname" : "Arial",
					"fontsize" : 12.0,
					"id" : "obj-5",
					"maxclass" : "message",
					"numinlets" : 2,
					"numoutlets" : 1,
					"outlettype" : [ "" ],
					"patching_rect" : [ 363.0, 177.0, 47.0, 18.0 ],
					"presentation_rect" : [ 220.0, 65.0, 0.0, 0.0 ],
					"text" : "wclose"
				}

			}
, 			{
				"box" : 				{
					"fontname" : "Arial",
					"fontsize" : 12.0,
					"id" : "obj-4",
					"maxclass" : "message",
					"numinlets" : 2,
					"numoutlets" : 1,
					"outlettype" : [ "" ],
					"patching_rect" : [ 313.0, 177.0, 37.0, 18.0 ],
					"text" : "open"
				}

			}
, 			{
				"box" : 				{
					"fontname" : "Arial",
					"fontsize" : 11.0,
					"id" : "obj-2",
					"linecount" : 2,
					"maxclass" : "newobj",
					"numinlets" : 1,
					"numoutlets" : 7,
					"outlettype" : [ "source", "speakers", "source", "", "listener", "", "" ],
					"patching_rect" : [ 313.0, 209.0, 603.0, 31.0 ],
					"saved_object_attributes" : 					{
						"parameter_enable" : 0
					}
,
					"text" : "spat.viewer @numsources 1 @numspeakers 2 @showaperture 0 @format ade @circularconstraint 1 @speakerseditable 0"
				}

			}
, 			{
				"box" : 				{
					"fontname" : "Arial",
					"fontsize" : 12.0,
					"id" : "obj-1",
					"maxclass" : "newobj",
					"numinlets" : 2,
					"numoutlets" : 0,
					"patching_rect" : [ 259.0, 495.0, 57.0, 20.0 ],
					"text" : "dac~ 1 2"
				}

			}
 ],
		"lines" : [ 			{
				"patchline" : 				{
					"destination" : [ "obj-1", 1 ],
					"disabled" : 0,
					"hidden" : 0,
					"source" : [ "obj-10", 2 ]
				}

			}
, 			{
				"patchline" : 				{
					"destination" : [ "obj-1", 0 ],
					"disabled" : 0,
					"hidden" : 0,
					"source" : [ "obj-10", 1 ]
				}

			}
, 			{
				"patchline" : 				{
					"destination" : [ "obj-1", 0 ],
					"disabled" : 0,
					"hidden" : 0,
					"source" : [ "obj-18", 0 ]
				}

			}
, 			{
				"patchline" : 				{
					"destination" : [ "obj-7", 0 ],
					"disabled" : 0,
					"hidden" : 0,
					"source" : [ "obj-2", 1 ]
				}

			}
, 			{
				"patchline" : 				{
					"destination" : [ "obj-7", 0 ],
					"disabled" : 0,
					"hidden" : 0,
					"source" : [ "obj-2", 0 ]
				}

			}
, 			{
				"patchline" : 				{
					"destination" : [ "obj-1", 0 ],
					"disabled" : 0,
					"hidden" : 0,
					"source" : [ "obj-20", 0 ]
				}

			}
, 			{
				"patchline" : 				{
					"destination" : [ "obj-2", 0 ],
					"disabled" : 0,
					"hidden" : 0,
					"source" : [ "obj-4", 0 ]
				}

			}
, 			{
				"patchline" : 				{
					"destination" : [ "obj-2", 0 ],
					"disabled" : 0,
					"hidden" : 0,
					"source" : [ "obj-5", 0 ]
				}

			}
, 			{
				"patchline" : 				{
					"destination" : [ "obj-10", 2 ],
					"disabled" : 0,
					"hidden" : 0,
					"source" : [ "obj-7", 1 ]
				}

			}
, 			{
				"patchline" : 				{
					"destination" : [ "obj-10", 1 ],
					"disabled" : 0,
					"hidden" : 0,
					"source" : [ "obj-7", 0 ]
				}

			}
, 			{
				"patchline" : 				{
					"destination" : [ "obj-7", 0 ],
					"disabled" : 0,
					"hidden" : 0,
					"source" : [ "obj-9", 0 ]
				}

			}
 ],
		"parameters" : 		{
			"obj-9::obj-46::obj-36" : [ "select folder[1]", "select folder", 0 ],
			"obj-9::obj-46::obj-6" : [ "live.text[3]", "live.text[1]", 0 ],
			"obj-9::obj-26::obj-56" : [ "live.button[1]", "live.button[1]", 0 ],
			"obj-9::obj-23" : [ "live.toggle", "live.toggle", 0 ],
			"obj-9::obj-182" : [ "live.text[1]", "live.text[1]", 0 ],
			"obj-9::obj-26::obj-59" : [ "live.numbox[1]", "live.numbox[1]", 0 ],
			"obj-9::obj-43::obj-8" : [ "live.dial", "freq", 0 ],
			"obj-9::obj-26::obj-58" : [ "live.toggle[1]", "live.toggle[1]", 0 ],
			"obj-9::obj-1" : [ "live.menu", "live.menu", 0 ],
			"obj-9::obj-2" : [ "live.gain~[1]", " ", 0 ],
			"obj-9::obj-5::obj-12" : [ "live.button", "live.button", 0 ],
			"obj-9::obj-12::obj-4" : [ "live.numbox", "live.numbox", 0 ]
		}
,
		"dependency_cache" : [ 			{
				"name" : "spat.input~.maxpat",
				"bootpath" : "/Applications/Max 6.1/packages/ircam-spat/patchers",
				"patcherrelativepath" : "../../../../../Applications/Max 6.1/packages/ircam-spat/patchers",
				"type" : "JSON",
				"implicit" : 1
			}
, 			{
				"name" : "spat.multioutputs~.maxpat",
				"bootpath" : "/Applications/Max 6.1/packages/ircam-spat/patchers",
				"patcherrelativepath" : "../../../../../Applications/Max 6.1/packages/ircam-spat/patchers",
				"type" : "TEXT",
				"implicit" : 1
			}
, 			{
				"name" : "spat.viewer.mxo",
				"type" : "iLaX"
			}
, 			{
				"name" : "spat.pan~.mxo",
				"type" : "iLaX"
			}
, 			{
				"name" : "spat.rms~.mxo",
				"type" : "iLaX"
			}
, 			{
				"name" : "spat.times~.mxo",
				"type" : "iLaX"
			}
 ]
	}

}
